<mxfile>
    <diagram id="audio_processing_flow" name="音频处理流程">
        <mxGraphModel>
            <root>
                <mxCell id="0"/>
                <mxCell id="1" parent="0"/>
                
                <!-- 开始节点 -->
                <mxCell id="start" value="开始" style="ellipse;whiteSpace=wrap;" vertex="1" parent="1">
                    <mxGeometry x="300" y="20" width="100" height="40" as="geometry"/>
                </mxCell>
                
                <!-- 下载音频 -->
                <mxCell id="download" value="下载YouTube音频&#10;(yt-dlp)" style="rounded=1;whiteSpace=wrap;" vertex="1" parent="1">
                    <mxGeometry x="275" y="100" width="150" height="60" as="geometry"/>
                </mxCell>
                
                <!-- 检查文件大小 -->
                <mxCell id="check_size" value="检查文件大小" style="rhombus;whiteSpace=wrap;" vertex="1" parent="1">
                    <mxGeometry x="275" y="200" width="150" height="80" as="geometry"/>
                </mxCell>
                
                <!-- 分割音频 -->
                <mxCell id="split" value="使用ffmpeg分割音频" style="rounded=1;whiteSpace=wrap;" vertex="1" parent="1">
                    <mxGeometry x="450" y="300" width="150" height="60" as="geometry"/>
                </mxCell>
                
                <!-- 转录音频 -->
                <mxCell id="transcribe" value="音频转文字&#10;(Silicon Flow API)" style="rounded=1;whiteSpace=wrap;" vertex="1" parent="1">
                    <mxGeometry x="275" y="400" width="150" height="60" as="geometry"/>
                </mxCell>
                
                <!-- 检查语言 -->
                <mxCell id="check_lang" value="是否需要翻译" style="rhombus;whiteSpace=wrap;" vertex="1" parent="1">
                    <mxGeometry x="275" y="500" width="150" height="80" as="geometry"/>
                </mxCell>
                
                <!-- 翻译文本 -->
                <mxCell id="translate" value="翻译成中文&#10;(DeepSeek API)" style="rounded=1;whiteSpace=wrap;" vertex="1" parent="1">
                    <mxGeometry x="450" y="600" width="150" height="60" as="geometry"/>
                </mxCell>
                
                <!-- 润色文本 -->
                <mxCell id="refine" value="润色文本&#10;(DeepSeek API)" style="rounded=1;whiteSpace=wrap;" vertex="1" parent="1">
                    <mxGeometry x="275" y="700" width="150" height="60" as="geometry"/>
                </mxCell>
                
                <!-- 结束节点 -->
                <mxCell id="end" value="结束" style="ellipse;whiteSpace=wrap;" vertex="1" parent="1">
                    <mxGeometry x="300" y="800" width="100" height="40" as="geometry"/>
                </mxCell>
                
                <!-- 连接线 -->
                <mxCell id="flow1" value="" style="endArrow=classic;html=1;" edge="1" parent="1" source="start" target="download"/>
                <mxCell id="flow2" value="" style="endArrow=classic;html=1;" edge="1" parent="1" source="download" target="check_size"/>
                <mxCell id="flow3" value="大于20MB" style="endArrow=classic;html=1;" edge="1" parent="1" source="check_size" target="split">
                    <mxGeometry x="-0.3" relative="1" as="geometry">
                        <mxPoint as="offset"/>
                    </mxGeometry>
                </mxCell>
                <mxCell id="flow4" value="小于20MB" style="endArrow=classic;html=1;" edge="1" parent="1" source="check_size" target="transcribe">
                    <mxGeometry relative="1" as="geometry"/>
                </mxCell>
                <mxCell id="flow5" value="" style="endArrow=classic;html=1;" edge="1" parent="1" source="split" target="transcribe"/>
                <mxCell id="flow6" value="" style="endArrow=classic;html=1;" edge="1" parent="1" source="transcribe" target="check_lang"/>
                <mxCell id="flow7" value="是" style="endArrow=classic;html=1;" edge="1" parent="1" source="check_lang" target="translate">
                    <mxGeometry relative="1" as="geometry"/>
                </mxCell>
                <mxCell id="flow8" value="否" style="endArrow=classic;html=1;" edge="1" parent="1" source="check_lang" target="refine">
                    <mxGeometry relative="1" as="geometry"/>
                </mxCell>
                <mxCell id="flow9" value="" style="endArrow=classic;html=1;" edge="1" parent="1" source="translate" target="refine"/>
                <mxCell id="flow10" value="" style="endArrow=classic;html=1;" edge="1" parent="1" source="refine" target="end"/>
                
                <!-- 错误处理 -->
                <mxCell id="error_box" value="错误处理&#10;- 显示错误弹窗&#10;- 更新处理状态&#10;- 保存错误信息" style="rounded=1;whiteSpace=wrap;dashed=1;" vertex="1" parent="1">
                    <mxGeometry x="50" y="400" width="150" height="80" as="geometry"/>
                </mxCell>
                
                <!-- 错误连接线 -->
                <mxCell id="error_flow1" value="错误" style="endArrow=classic;html=1;dashed=1;" edge="1" parent="1" source="download" target="error_box"/>
                <mxCell id="error_flow2" value="错误" style="endArrow=classic;html=1;dashed=1;" edge="1" parent="1" source="split" target="error_box"/>
                <mxCell id="error_flow3" value="错误" style="endArrow=classic;html=1;dashed=1;" edge="1" parent="1" source="transcribe" target="error_box"/>
                <mxCell id="error_flow4" value="错误" style="endArrow=classic;html=1;dashed=1;" edge="1" parent="1" source="translate" target="error_box"/>
                <mxCell id="error_flow5" value="错误" style="endArrow=classic;html=1;dashed=1;" edge="1" parent="1" source="refine" target="error_box"/>
            </root>
        </mxGraphModel>
    </diagram>
</mxfile> 